<svg width="72" height="73" viewBox="0 0 72 73" fill="none" xmlns="http://www.w3.org/2000/svg">
<mask id="mask0_35_555" style="mask-type:luminance" maskUnits="userSpaceOnUse" x="10" y="1" width="52" height="70">
<path d="M10.9553 1.56061H61.3553V70.4749H10.9553V1.56061Z" fill="white"/>
</mask>
<g mask="url(#mask0_35_555)">
<path d="M38.3518 55.807V61.3356H33.5303V55.7374C32.9625 55.0303 31.6714 53.691 31.6714 52.1481C31.6714 49.8713 33.7071 48.0231 36.0053 48.0231C38.3036 48.0231 40.35 49.8713 40.35 52.1481C40.35 53.7392 38.9196 55.116 38.3518 55.807ZM57.75 33.2053H57.2036C57.1178 26.3106 56.7053 19.491 54.6964 14.0213C51.6536 5.74991 45.2732 1.56598 35.7321 1.56598L35.5928 1.57134H35.4053C25.8643 1.57134 19.4839 5.70705 16.4411 13.9785C15.225 17.2892 14.5982 21.2481 14.2661 25.0463H22.3821C23.3518 14.3535 26.3839 9.48919 35.4053 9.48919L35.5928 9.52134L35.7321 9.51062C46.4946 9.51062 49.425 14.3535 49.2428 33.2053H14.6357C12.6107 33.2053 10.9661 34.866 10.9661 36.8749V66.8481C10.9661 68.8517 12.6107 70.4803 14.6357 70.4803H57.75C59.7696 70.4803 61.3446 68.8517 61.3446 66.8481V36.8749C61.3446 34.866 59.7696 33.2053 57.75 33.2053Z" fill="#EDECEC"/>
</g>
</svg>
