<svg width="24" height="24" viewBox="0 0 24 24" fill="none" xmlns="http://www.w3.org/2000/svg">
<mask id="mask0_8_51" style="mask-type:luminance" maskUnits="userSpaceOnUse" x="3" y="0" width="18" height="24">
<path d="M3.72858 0.592865H20.1857V23.5643H3.72858V0.592865Z" fill="white"/>
</mask>
<g mask="url(#mask0_8_51)">
<path d="M16.2322 11.1357H7.68395C7.62681 4.93571 8.55716 3.28035 11.9572 3.23749C15.3589 3.28035 16.2893 4.93571 16.2322 11.1357ZM12.6768 18.6696V20.5143H11.2393V18.6696C11.0536 18.4393 10.5893 17.9804 10.5893 17.45C10.5893 16.7089 11.2286 16.1036 11.9572 16.0768C12.6875 16.1036 13.3268 16.7089 13.3268 17.45C13.3268 17.9804 12.8607 18.4393 12.6768 18.6696ZM19.0089 11.1357H18.8322C18.8036 8.83749 18.6679 6.56428 18.0125 4.74285C17.0339 2.02499 14.9964 0.632136 11.9572 0.591064C8.91788 0.632136 6.88216 2.02499 5.90359 4.74285C5.24823 6.56428 5.11252 8.83749 5.08395 11.1357H4.90716C4.24645 11.1357 3.73395 11.6911 3.73395 12.3589V22.3518C3.73395 23.0196 4.24645 23.5607 4.90716 23.5607H19.0089C19.6697 23.5607 20.1822 23.0196 20.1822 22.3518V12.3589C20.1822 11.6911 19.6697 11.1357 19.0089 11.1357Z" fill="#00AC47"/>
</g>
</svg>
