<svg width="18" height="25" viewBox="0 0 18 25" fill="none" xmlns="http://www.w3.org/2000/svg">
<mask id="mask0_8_58" style="mask-type:luminance" maskUnits="userSpaceOnUse" x="0" y="0" width="18" height="25">
<path d="M0.447754 0.121246H18V24.1212H0.447754V0.121246Z" fill="white"/>
</mask>
<g mask="url(#mask0_8_58)">
<path d="M9.98885 19.013V20.9384H8.30975V18.9888C8.11198 18.7425 7.66236 18.2761 7.66236 17.7388C7.66236 16.9459 8.37131 16.3022 9.17169 16.3022C9.97206 16.3022 10.6847 16.9459 10.6847 17.7388C10.6847 18.2929 10.1866 18.7724 9.98885 19.013ZM16.7444 11.1418H16.5541C16.5243 8.74064 16.3806 6.36565 15.681 4.46079C14.6213 1.5802 12.3993 0.123108 9.07654 0.123108L9.02803 0.124973H8.96273C5.63997 0.124973 3.41796 1.56527 2.35825 4.44587C1.93475 5.59885 1.71646 6.97759 1.60079 8.30035H4.42728C4.76497 4.57647 5.82094 2.88244 8.96273 2.88244L9.02803 2.89363L9.07654 2.8899C12.8247 2.8899 13.8452 4.57647 13.7818 11.1418H1.72952C1.0243 11.1418 0.451538 11.7201 0.451538 12.4197V22.8582C0.451538 23.5559 1.0243 24.1231 1.72952 24.1231H16.7444C17.4478 24.1231 17.9963 23.5559 17.9963 22.8582V12.4197C17.9963 11.7201 17.4478 11.1418 16.7444 11.1418Z" fill="#F03029"/>
</g>
</svg>
