<svg width="72" height="73" viewBox="0 0 72 73" fill="none" xmlns="http://www.w3.org/2000/svg">
<g clip-path="url(#clip0_35_561)">
<path d="M29.196 50.2125H40.734V51.732H29.196V50.2125Z" fill="#EDECEC"/>
<mask id="mask0_35_561" style="mask-type:luminance" maskUnits="userSpaceOnUse" x="31" y="52" width="8" height="20">
<path d="M31.488 52.7114H38.4V71.7374H31.488V52.7114Z" fill="white"/>
</mask>
<g mask="url(#mask0_35_561)">
<path d="M31.7371 52.8974H38.1946V71.7374H31.7371V52.8974Z" fill="#EDECEC"/>
</g>
<mask id="mask1_35_561" style="mask-type:luminance" maskUnits="userSpaceOnUse" x="24" y="0" width="4" height="14">
<path d="M24.576 0.60144H27.2641V13.5434H24.576V0.60144Z" fill="white"/>
</mask>
<g mask="url(#mask1_35_561)">
<path d="M27.1545 1.83894C27.1545 1.15644 26.601 0.60144 25.92 0.60144C25.239 0.60144 24.6855 1.15644 24.6855 1.83894V13.5164H27.1545V1.83894Z" fill="#EDECEC"/>
</g>
<mask id="mask2_35_561" style="mask-type:luminance" maskUnits="userSpaceOnUse" x="42" y="0" width="4" height="14">
<path d="M42.624 0.60144H45.312V13.5434H42.624V0.60144Z" fill="white"/>
</mask>
<g mask="url(#mask2_35_561)">
<path d="M45.2445 1.83894C45.2445 1.15644 44.691 0.60144 44.01 0.60144C43.329 0.60144 42.7755 1.15644 42.7755 1.83894V13.5164H45.2445V1.83894Z" fill="#EDECEC"/>
</g>
<path d="M29.196 47.5275H40.734V49.0455H29.196V47.5275Z" fill="#EDECEC"/>
<path d="M21.2295 33.819C21.2295 37.545 23.2875 40.917 26.5995 42.6165C28.0305 43.3515 28.974 44.754 29.16 46.362H40.77C40.956 44.754 41.8995 43.3515 43.3305 42.6165C46.6425 40.917 48.7005 37.545 48.7005 33.819V19.725H21.2295V33.819ZM29.61 31.545L34.4445 21.846C34.566 21.6045 34.836 21.477 35.0985 21.5385C35.361 21.6015 35.547 21.8355 35.547 22.107V27.5685H40.368C40.581 27.5685 40.776 27.684 40.8795 27.8715C40.98 28.059 40.9725 28.287 40.8585 28.4655L33.729 39.6165C33.6195 39.7875 33.432 39.885 33.2385 39.885C33.1635 39.885 33.087 39.87 33.0135 39.8385C32.7525 39.729 32.6085 39.447 32.673 39.171L34.2345 32.388H30.1305C29.9295 32.388 29.742 32.2845 29.6355 32.112C29.529 31.9395 29.52 31.725 29.61 31.545Z" fill="#EDECEC"/>
<mask id="mask3_35_561" style="mask-type:luminance" maskUnits="userSpaceOnUse" x="19" y="14" width="32" height="5">
<path d="M19.4115 14.3115H50.5155V18.9195H19.4115V14.3115Z" fill="white"/>
</mask>
<g mask="url(#mask3_35_561)">
<path d="M19.4189 14.6819H50.5109V18.5594H19.4189V14.6819Z" fill="#EDECEC"/>
</g>
<path d="M35.4195 31.443C35.5305 31.581 35.571 31.764 35.532 31.9365L34.56 36.1545L39.3045 28.734H34.965C34.644 28.734 34.383 28.473 34.383 28.152V24.5775L31.071 31.2225H34.965C35.142 31.2225 35.31 31.3035 35.4195 31.443Z" fill="#EDECEC"/>
</g>
<defs>
<clipPath id="clip0_35_561">
<rect width="72" height="72" fill="white" transform="translate(0 0.103455)"/>
</clipPath>
</defs>
</svg>
