<svg xmlns="http://www.w3.org/2000/svg" xmlns:xlink="http://www.w3.org/1999/xlink" width="250" zoomAndPan="magnify" viewBox="0 0 187.5 187.499992" height="250" preserveAspectRatio="xMidYMid meet" version="1.0"><defs><clipPath id="7f65a72912"><path d="M 36.542969 3.953125 L 151.285156 3.953125 L 151.285156 183.808594 L 36.542969 183.808594 Z M 36.542969 3.953125 " clip-rule="nonzero"/></clipPath></defs><g clip-path="url(#7f65a72912)"><path fill="#edecec" d="M 141.742188 126.464844 L 141.742188 126.523438 C 141.734375 126.832031 141.738281 126.632812 141.734375 126.714844 L 141.710938 127.070312 L 141.652344 127.78125 C 141.617188 128.253906 141.578125 128.726562 141.539062 129.195312 C 141.527344 129.316406 141.523438 129.421875 141.507812 129.554688 L 141.453125 129.957031 C 141.417969 130.226562 141.382812 130.492188 141.34375 130.761719 C 141.269531 131.292969 141.191406 131.820312 141.113281 132.347656 C 140.941406 133.375 140.699219 134.335938 140.488281 135.3125 C 140.257812 136.277344 139.953125 137.214844 139.683594 138.140625 C 139.558594 138.609375 139.367188 139.054688 139.210938 139.503906 C 139.042969 139.949219 138.875 140.394531 138.710938 140.832031 C 137.320312 144.332031 135.519531 147.398438 133.625 150 C 133.136719 150.648438 132.6875 151.289062 132.175781 151.867188 C 131.671875 152.449219 131.203125 153.035156 130.707031 153.566406 C 130.195312 154.085938 129.699219 154.589844 129.214844 155.082031 C 129.09375 155.203125 128.976562 155.324219 128.855469 155.441406 C 128.730469 155.554688 128.605469 155.667969 128.480469 155.78125 C 128.230469 156 127.984375 156.21875 127.742188 156.429688 C 126.792969 157.296875 125.824219 158.015625 124.941406 158.675781 C 124.507812 159.015625 124.046875 159.292969 123.632812 159.574219 C 123.210938 159.855469 122.804688 160.109375 122.421875 160.355469 C 120.84375 161.269531 119.59375 161.925781 118.695312 162.292969 C 118.257812 162.496094 117.914062 162.632812 117.6875 162.730469 C 117.457031 162.828125 117.339844 162.878906 117.339844 162.878906 C 117.339844 162.878906 117.699219 162.511719 118.367188 161.824219 C 118.53125 161.652344 118.71875 161.464844 118.925781 161.257812 C 119.027344 161.15625 119.132812 161.050781 119.246094 160.9375 C 119.351562 160.820312 119.464844 160.695312 119.578125 160.570312 C 119.804688 160.316406 120.050781 160.042969 120.3125 159.75 C 120.570312 159.460938 120.863281 159.171875 121.140625 158.832031 C 121.414062 158.492188 121.699219 158.132812 122.007812 157.769531 C 122.308594 157.398438 122.644531 157.035156 122.941406 156.605469 C 123.546875 155.757812 124.25 154.90625 124.878906 153.894531 C 125.039062 153.648438 125.207031 153.398438 125.375 153.148438 C 125.460938 153.023438 125.542969 152.894531 125.632812 152.769531 C 125.710938 152.636719 125.789062 152.503906 125.871094 152.367188 C 126.1875 151.835938 126.511719 151.285156 126.847656 150.722656 C 127.457031 149.558594 128.136719 148.382812 128.6875 147.074219 C 129.867188 144.503906 130.875 141.632812 131.601562 138.558594 C 131.683594 138.171875 131.765625 137.78125 131.847656 137.390625 C 131.925781 137 132.035156 136.613281 132.082031 136.210938 C 132.144531 135.8125 132.203125 135.410156 132.265625 135.007812 C 132.296875 134.808594 132.328125 134.605469 132.359375 134.402344 C 132.398438 134.203125 132.425781 134 132.441406 133.796875 C 132.480469 133.386719 132.515625 132.976562 132.554688 132.5625 L 132.617188 131.941406 C 132.640625 131.734375 132.664062 131.53125 132.664062 131.335938 C 132.675781 130.941406 132.6875 130.546875 132.703125 130.148438 L 132.730469 129.554688 L 132.746094 129.257812 C 132.75 129.15625 132.742188 129.027344 132.742188 128.910156 C 132.734375 128.441406 132.726562 127.96875 132.722656 127.492188 L 132.710938 126.78125 L 132.707031 126.421875 C 132.707031 126.472656 132.710938 126.246094 132.703125 126.523438 L 132.703125 126.492188 L 132.695312 126.425781 L 132.683594 126.292969 L 132.636719 125.773438 L 132.554688 125.195312 C 132.523438 125 132.503906 124.8125 132.46875 124.609375 L 132.351562 123.992188 C 132.222656 123.183594 131.984375 122.304688 131.796875 121.453125 C 131.679688 121.015625 131.5625 120.578125 131.445312 120.136719 C 131.328125 119.695312 131.222656 119.257812 131.078125 118.8125 C 130.039062 115.25 128.765625 111.582031 127.378906 107.933594 C 126.726562 106.101562 125.972656 104.28125 125.277344 102.453125 C 124.546875 100.628906 123.820312 98.816406 123.097656 97.015625 C 122.359375 95.210938 121.621094 93.425781 120.894531 91.660156 C 120.542969 90.769531 120.164062 89.894531 119.796875 89.023438 C 119.433594 88.148438 119.074219 87.28125 118.714844 86.421875 C 118.351562 85.5625 118.023438 84.699219 117.65625 83.855469 C 117.300781 83.011719 116.949219 82.171875 116.597656 81.34375 C 115.910156 79.679688 115.238281 78.050781 114.585938 76.464844 C 113.921875 74.882812 113.285156 73.339844 112.6875 71.835938 C 112.386719 71.085938 112.089844 70.34375 111.800781 69.621094 C 111.5 68.894531 111.199219 68.183594 110.921875 67.476562 C 110.363281 66.066406 109.8125 64.726562 109.320312 63.433594 C 108.828125 62.15625 108.359375 60.941406 107.917969 59.800781 C 107.023438 57.5 106.265625 55.480469 105.671875 53.804688 C 105.070312 52.128906 104.625 50.800781 104.328125 49.890625 C 104.03125 48.976562 103.882812 48.488281 103.882812 48.488281 C 103.882812 48.488281 104.21875 48.875 104.828125 49.617188 C 105.4375 50.355469 106.320312 51.445312 107.410156 52.855469 C 108.503906 54.257812 109.800781 55.980469 111.257812 57.972656 C 111.441406 58.222656 111.628906 58.476562 111.816406 58.730469 C 111.90625 58.863281 112 58.992188 112.09375 59.121094 L 112.113281 59.148438 C 112.148438 59.210938 112.132812 59.179688 112.144531 59.199219 L 112.25 59.351562 L 112.390625 59.550781 C 112.761719 60.089844 113.144531 60.644531 113.539062 61.210938 C 114.328125 62.347656 115.128906 63.558594 115.976562 64.8125 C 116.40625 65.441406 116.824219 66.089844 117.253906 66.746094 C 117.679688 67.414062 118.109375 68.097656 118.550781 68.789062 C 119.429688 70.179688 120.320312 71.625 121.226562 73.121094 C 121.6875 73.863281 122.132812 74.628906 122.578125 75.402344 C 123.027344 76.175781 123.480469 76.960938 123.929688 77.757812 C 124.839844 79.347656 125.761719 80.976562 126.644531 82.664062 C 127.535156 84.351562 128.449219 86.058594 129.324219 87.816406 C 130.1875 89.582031 131.074219 91.363281 131.917969 93.1875 C 132.332031 94.105469 132.746094 95.027344 133.160156 95.949219 C 133.574219 96.875 134 97.796875 134.378906 98.75 C 135.160156 100.640625 135.953125 102.527344 136.660156 104.472656 C 138.117188 108.332031 139.410156 112.292969 140.394531 116.375 C 140.527344 116.875 140.632812 117.402344 140.742188 117.917969 C 140.851562 118.4375 140.960938 118.953125 141.066406 119.46875 C 141.234375 120.542969 141.433594 121.566406 141.542969 122.679688 L 141.636719 123.5 C 141.660156 123.777344 141.671875 124.070312 141.691406 124.355469 L 141.738281 125.210938 C 141.738281 125.515625 141.742188 125.820312 141.742188 126.125 Z M 93.914062 3.953125 C 93.914062 3.953125 36.542969 94.886719 36.542969 126.523438 C 36.542969 158.160156 62.226562 183.808594 93.914062 183.808594 C 125.601562 183.808594 151.289062 158.160156 151.289062 126.523438 C 151.289062 94.886719 93.914062 3.953125 93.914062 3.953125 " fill-opacity="1" fill-rule="nonzero"/></g></svg>