<svg width="16px" height="16px" viewBox="0 0 16 16" xmlns="http://www.w3.org/2000/svg" aria-labelledby="title" aria-label="Upgrade account"><path d="M8 16C3.58172 16 0 12.4183 0 8C0 3.58172 3.58172 0 8 0C12.4183 0 16 3.58172 16 8C16 12.4183 12.4183 16 8 16Z" fill="#00BCD4"></path><path d="M11.4976 7.22716C11.7689 6.96307 11.6189 6.5021 11.2451 6.44801L9.15979 6.14415L8.22791 4.25415C8.14399 4.08511 7.98053 4 7.81706 4C7.65439 4 7.49212 4.08392 7.4082 4.25415L6.47632 6.14415L4.39104 6.44801C4.01718 6.5021 3.86723 6.96307 4.13848 7.22716L5.64706 8.69716L5.2903 10.7741C5.22666 11.146 5.61843 11.4319 5.95252 11.2549L7.81786 10.2745L9.6836 11.2549C10.0173 11.4307 10.4094 11.1464 10.3458 10.7741L9.98905 8.69716L11.4976 7.22716Z" fill="white"></path></svg>