<svg width="72" height="73" viewBox="0 0 72 73" fill="none" xmlns="http://www.w3.org/2000/svg">
<g clip-path="url(#clip0_35_586)">
<mask id="mask0_35_586" style="mask-type:luminance" maskUnits="userSpaceOnUse" x="0" y="0" width="72" height="72">
<path d="M0.775513 0.878967H71.3355V71.439H0.775513V0.878967Z" fill="white"/>
</mask>
<g mask="url(#mask0_35_586)">
<path d="M36.0555 0.878967C35.478 0.878967 34.902 0.893967 34.3245 0.922467C33.7485 0.949467 33.1725 0.992967 32.598 1.04997C32.0235 1.10547 31.4505 1.17597 30.879 1.26147C30.3075 1.34547 29.739 1.44447 29.1735 1.55697C28.6065 1.66947 28.044 1.79697 27.483 1.93647C26.9235 2.07747 26.367 2.23047 25.815 2.39847C25.2615 2.56647 24.714 2.74647 24.171 2.94147C23.6265 3.13647 23.088 3.34347 22.5555 3.56547C22.0215 3.78597 21.4935 4.01997 20.9715 4.26597C20.4495 4.51347 19.9335 4.77297 19.425 5.04447C18.9165 5.31747 18.414 5.60247 17.919 5.89797C17.4225 6.19497 16.935 6.50397 16.455 6.82497C15.975 7.14597 15.504 7.47897 15.039 7.82247C14.5755 8.16597 14.121 8.52147 13.674 8.88747C13.2285 9.25347 12.7905 9.63147 12.363 10.0185C11.9355 10.407 11.517 10.8045 11.109 11.2125C10.701 11.6205 10.3035 12.039 9.91501 12.4665C9.52801 12.894 9.15001 13.332 8.78401 13.7775C8.41801 14.2245 8.06251 14.679 7.71901 15.1425C7.37551 15.6075 7.04251 16.0785 6.72151 16.5585C6.40051 17.0385 6.09151 17.526 5.79451 18.0225C5.49901 18.5175 5.21401 19.02 4.94101 19.5285C4.66951 20.037 4.41001 20.553 4.16251 21.075C3.91651 21.597 3.68251 22.125 3.46201 22.659C3.24001 23.1915 3.03301 23.73 2.83801 24.2745C2.64301 24.8175 2.46301 25.365 2.29501 25.9185C2.12701 26.4705 1.97401 27.027 1.83301 27.5865C1.69351 28.1475 1.56601 28.71 1.45351 29.277C1.34101 29.8425 1.24201 30.411 1.15801 30.9825C1.07251 31.554 1.00201 32.127 0.946513 32.7015C0.889513 33.276 0.846013 33.852 0.819013 34.428C0.790513 35.0055 0.775513 35.5815 0.775513 36.159C0.775513 36.7365 0.790513 37.314 0.819013 37.89C0.846013 38.4675 0.889513 39.0435 0.946513 39.618C1.00201 40.1925 1.07251 40.7655 1.15801 41.3355C1.24201 41.907 1.34101 42.4755 1.45351 43.0425C1.56601 43.608 1.69351 44.172 1.83301 44.7315C1.97401 45.2925 2.12701 45.8475 2.29501 46.401C2.46301 46.953 2.64301 47.5005 2.83801 48.045C3.03301 48.588 3.24001 49.1265 3.46201 49.6605C3.68251 50.1945 3.91651 50.721 4.16251 51.243C4.41001 51.765 4.66951 52.281 4.94101 52.791C5.21401 53.2995 5.49901 53.802 5.79451 54.297C6.09151 54.792 6.40051 55.2795 6.72151 55.7595C7.04251 56.2395 7.37551 56.712 7.71901 57.1755C8.06251 57.639 8.41801 58.095 8.78401 58.5405C9.15001 58.9875 9.52801 59.424 9.91501 59.8515C10.3035 60.2805 10.701 60.6975 11.109 61.1055C11.517 61.515 11.9355 61.9125 12.363 62.2995C12.7905 62.688 13.2285 63.0645 13.674 63.4305C14.121 63.798 14.5755 64.152 15.039 64.497C15.504 64.8405 15.975 65.1735 16.455 65.493C16.935 65.814 17.4225 66.123 17.919 66.42C18.414 66.717 18.9165 67.002 19.425 67.2735C19.9335 67.5465 20.4495 67.806 20.9715 68.052C21.4935 68.2995 22.0215 68.5335 22.5555 68.754C23.088 68.9745 23.6265 69.183 24.171 69.3765C24.714 69.5715 25.2615 69.753 25.815 69.921C26.367 70.0875 26.9235 70.242 27.483 70.3815C28.044 70.5225 28.6065 70.6485 29.1735 70.761C29.739 70.8735 30.3075 70.9725 30.879 71.058C31.4505 71.142 32.0235 71.2125 32.598 71.2695C33.1725 71.3265 33.7485 71.3685 34.3245 71.397C34.902 71.4255 35.478 71.439 36.0555 71.439C36.633 71.439 37.2105 71.4255 37.7865 71.397C38.364 71.3685 38.94 71.3265 39.5145 71.2695C40.089 71.2125 40.662 71.142 41.232 71.058C41.8035 70.9725 42.372 70.8735 42.939 70.761C43.5045 70.6485 44.0685 70.5225 44.628 70.3815C45.189 70.242 45.744 70.0875 46.2975 69.921C46.8495 69.753 47.397 69.5715 47.9415 69.3765C48.4845 69.183 49.023 68.9745 49.557 68.754C50.091 68.5335 50.6175 68.2995 51.1395 68.052C51.6615 67.806 52.1775 67.5465 52.6875 67.2735C53.196 67.002 53.6985 66.717 54.1935 66.42C54.6885 66.123 55.176 65.814 55.656 65.493C56.136 65.1735 56.6085 64.8405 57.072 64.497C57.5355 64.152 57.9915 63.798 58.437 63.4305C58.884 63.0645 59.3205 62.688 59.748 62.2995C60.177 61.9125 60.594 61.515 61.002 61.1055C61.4115 60.6975 61.809 60.2805 62.196 59.8515C62.5845 59.424 62.961 58.9875 63.327 58.5405C63.6945 58.095 64.0485 57.639 64.3935 57.1755C64.737 56.712 65.07 56.2395 65.3895 55.7595C65.7105 55.2795 66.0195 54.792 66.3165 54.297C66.6135 53.802 66.8985 53.2995 67.17 52.791C67.443 52.281 67.7025 51.765 67.9485 51.243C68.196 50.721 68.43 50.1945 68.6505 49.6605C68.871 49.1265 69.0795 48.588 69.273 48.045C69.468 47.5005 69.6495 46.953 69.8175 46.401C69.984 45.8475 70.1385 45.2925 70.278 44.7315C70.419 44.172 70.545 43.608 70.6575 43.0425C70.77 42.4755 70.869 41.907 70.9545 41.3355C71.0385 40.7655 71.109 40.1925 71.166 39.618C71.223 39.0435 71.265 38.4675 71.2935 37.89C71.322 37.314 71.3355 36.7365 71.3355 36.159C71.3355 35.5815 71.322 35.0055 71.2935 34.428C71.265 33.852 71.223 33.276 71.166 32.7015C71.109 32.127 71.0385 31.554 70.9545 30.9825C70.869 30.411 70.77 29.8425 70.6575 29.277C70.545 28.71 70.419 28.1475 70.278 27.5865C70.1385 27.027 69.984 26.4705 69.8175 25.9185C69.6495 25.365 69.468 24.8175 69.273 24.2745C69.0795 23.73 68.871 23.1915 68.6505 22.659C68.43 22.125 68.196 21.597 67.9485 21.075C67.7025 20.553 67.443 20.037 67.17 19.5285C66.8985 19.02 66.6135 18.5175 66.3165 18.0225C66.0195 17.526 65.7105 17.0385 65.3895 16.5585C65.07 16.0785 64.737 15.6075 64.3935 15.1425C64.0485 14.679 63.6945 14.2245 63.327 13.7775C62.961 13.332 62.5845 12.894 62.196 12.4665C61.809 12.039 61.4115 11.6205 61.002 11.2125C60.594 10.8045 60.177 10.407 59.748 10.0185C59.3205 9.63147 58.884 9.25347 58.437 8.88747C57.9915 8.52147 57.5355 8.16597 57.072 7.82247C56.6085 7.47897 56.136 7.14597 55.656 6.82497C55.176 6.50397 54.6885 6.19497 54.1935 5.89797C53.6985 5.60247 53.196 5.31747 52.6875 5.04447C52.1775 4.77297 51.6615 4.51347 51.1395 4.26597C50.6175 4.01997 50.091 3.78597 49.557 3.56547C49.023 3.34347 48.4845 3.13647 47.9415 2.94147C47.397 2.74647 46.8495 2.56647 46.2975 2.39847C45.744 2.23047 45.189 2.07747 44.628 1.93647C44.0685 1.79697 43.5045 1.66947 42.939 1.55697C42.372 1.44447 41.8035 1.34547 41.232 1.26147C40.662 1.17597 40.089 1.10547 39.5145 1.04997C38.94 0.992967 38.364 0.949467 37.7865 0.922467C37.2105 0.893967 36.633 0.878967 36.0555 0.878967ZM38.4075 66.735V64.383C38.4075 64.2285 38.3925 64.0755 38.3625 63.924C38.3325 63.7725 38.2875 63.6255 38.229 63.483C38.1705 63.3405 38.097 63.2055 38.0115 63.0765C37.926 62.949 37.8285 62.829 37.719 62.721C37.6095 62.6115 37.491 62.514 37.362 62.4285C37.2345 62.3415 37.098 62.2695 36.9555 62.211C36.813 62.151 36.666 62.106 36.5145 62.076C36.363 62.046 36.21 62.031 36.0555 62.031C35.901 62.031 35.748 62.046 35.5965 62.076C35.445 62.106 35.298 62.151 35.1555 62.211C35.013 62.2695 34.878 62.3415 34.749 62.4285C34.6215 62.514 34.5015 62.6115 34.3935 62.721C34.284 62.829 34.1865 62.949 34.101 63.0765C34.014 63.2055 33.942 63.3405 33.8835 63.483C33.8235 63.6255 33.7785 63.7725 33.7485 63.924C33.7185 64.0755 33.7035 64.2285 33.7035 64.383V66.735C32.802 66.6645 31.905 66.555 31.014 66.405C30.1215 66.2535 29.238 66.0645 28.3635 65.8365C27.489 65.6085 26.625 65.3415 25.7745 65.0355C24.9225 64.731 24.087 64.389 23.2665 64.0095C22.4445 63.63 21.642 63.2145 20.859 62.7645C20.0745 62.3145 19.311 61.83 18.57 61.311C17.829 60.7935 17.112 60.243 16.4205 59.6625C15.7275 59.0805 15.063 58.4685 14.424 57.828C13.7865 57.1875 13.1775 56.52 12.5985 55.824C12.0195 55.1295 11.4735 54.411 10.9575 53.667C10.443 52.9245 9.96151 52.1595 9.51451 51.3735C9.06751 50.5875 8.65651 49.7835 8.28001 48.96C7.90351 48.138 7.56601 47.301 7.26451 46.4475C6.96301 45.5955 6.69901 44.7315 6.47401 43.8555C6.24901 42.9795 6.06301 42.0945 5.91751 41.2035C5.77051 40.311 5.66401 39.414 5.59801 38.511H7.83151C7.98601 38.511 8.13901 38.496 8.29051 38.466C8.44201 38.436 8.58901 38.391 8.73151 38.3325C8.87401 38.274 9.01051 38.2005 9.13801 38.115C9.26701 38.0295 9.38551 37.932 9.49501 37.8225C9.60451 37.713 9.70201 37.5945 9.78751 37.4655C9.87301 37.338 9.94651 37.2015 10.005 37.059C10.0635 36.9165 10.1085 36.7695 10.1385 36.618C10.1685 36.4665 10.1835 36.3135 10.1835 36.159C10.1835 36.0045 10.1685 35.8515 10.1385 35.7C10.1085 35.5485 10.0635 35.4015 10.005 35.259C9.94651 35.1165 9.87301 34.9815 9.78751 34.8525C9.70201 34.725 9.60451 34.605 9.49501 34.497C9.38551 34.3875 9.26701 34.29 9.13801 34.2045C9.01051 34.1175 8.87401 34.0455 8.73151 33.987C8.58901 33.927 8.44201 33.882 8.29051 33.852C8.13901 33.822 7.98601 33.807 7.83151 33.807H5.47951C5.55001 32.9055 5.66101 32.0085 5.81101 31.1175C5.96101 30.225 6.15001 29.3415 6.37951 28.467C6.60751 27.5925 6.87451 26.7285 7.17901 25.878C7.48501 25.026 7.82701 24.1905 8.20651 23.37C8.58451 22.548 9.00001 21.7455 9.45001 20.9625C9.90151 20.178 10.386 19.4145 10.9035 18.6735C11.4225 17.9325 11.9715 17.2155 12.5535 16.524C13.1355 15.831 13.746 15.1665 14.388 14.5275C15.0285 13.89 15.696 13.281 16.3905 12.702C17.085 12.123 17.805 11.577 18.5475 11.061C19.2915 10.5465 20.0565 10.065 20.8425 9.61797C21.6285 9.17097 22.4325 8.75997 23.2545 8.38347C24.0765 8.00697 24.915 7.66947 25.767 7.36797C26.6205 7.06647 27.4845 6.80247 28.3605 6.57747C29.2365 6.35247 30.12 6.16647 31.0125 6.02097C31.905 5.87397 32.802 5.76747 33.7035 5.70147V7.93497C33.7035 8.08947 33.7185 8.24247 33.7485 8.39397C33.7785 8.54547 33.8235 8.69247 33.8835 8.83497C33.942 8.97747 34.014 9.11397 34.101 9.24147C34.1865 9.37047 34.284 9.48897 34.3935 9.59847C34.5015 9.70797 34.6215 9.80547 34.749 9.89097C34.878 9.97647 35.013 10.05 35.1555 10.1085C35.298 10.167 35.445 10.212 35.5965 10.242C35.748 10.272 35.901 10.287 36.0555 10.287C36.21 10.287 36.363 10.272 36.5145 10.242C36.666 10.212 36.813 10.167 36.9555 10.1085C37.098 10.05 37.2345 9.97647 37.362 9.89097C37.491 9.80547 37.6095 9.70797 37.719 9.59847C37.8285 9.48897 37.926 9.37047 38.0115 9.24147C38.097 9.11397 38.1705 8.97747 38.229 8.83497C38.2875 8.69247 38.3325 8.54547 38.3625 8.39397C38.3925 8.24247 38.4075 8.08947 38.4075 7.93497V5.58297C39.312 5.65047 40.212 5.75847 41.106 5.90547C42 6.05247 42.8865 6.23847 43.7655 6.46497C44.643 6.69147 45.5085 6.95547 46.3635 7.25847C47.2185 7.56147 48.057 7.90197 48.882 8.27997C49.7055 8.65797 50.511 9.07197 51.2985 9.52047C52.086 9.97047 52.8525 10.4535 53.5965 10.9725C54.3405 11.49 55.0605 12.039 55.7565 12.621C56.451 13.203 57.12 13.8135 57.7605 14.454C58.401 15.096 59.013 15.7635 59.595 16.4595C60.177 17.1555 60.726 17.8755 61.2435 18.6195C61.761 19.3635 62.244 20.13 62.694 20.9175C63.144 21.7035 63.5565 22.5105 63.9345 23.334C64.3125 24.1575 64.653 24.9975 64.956 25.8525C65.259 26.706 65.5245 27.573 65.7495 28.4505C65.976 29.328 66.1635 30.2145 66.3105 31.11C66.4575 32.004 66.564 32.904 66.6315 33.807H64.2795C64.125 33.807 63.972 33.822 63.8205 33.852C63.669 33.882 63.522 33.927 63.3795 33.987C63.237 34.0455 63.102 34.1175 62.973 34.2045C62.8455 34.29 62.7255 34.3875 62.6175 34.497C62.508 34.605 62.4105 34.725 62.325 34.8525C62.238 34.9815 62.166 35.1165 62.1075 35.259C62.0475 35.4015 62.0025 35.5485 61.9725 35.7C61.9425 35.8515 61.9275 36.0045 61.9275 36.159C61.9275 36.3135 61.9425 36.4665 61.9725 36.618C62.0025 36.7695 62.0475 36.9165 62.1075 37.059C62.166 37.2015 62.238 37.338 62.325 37.4655C62.4105 37.5945 62.508 37.713 62.6175 37.8225C62.7255 37.932 62.8455 38.0295 62.973 38.115C63.102 38.2005 63.237 38.274 63.3795 38.3325C63.522 38.391 63.669 38.436 63.8205 38.466C63.972 38.496 64.125 38.511 64.2795 38.511H66.6315C66.564 39.4155 66.4575 40.3155 66.3105 41.2095C66.1635 42.1035 65.976 42.99 65.7495 43.869C65.5245 44.7465 65.259 45.612 64.956 46.467C64.653 47.322 64.3125 48.1605 63.9345 48.9855C63.5565 49.809 63.144 50.6145 62.694 51.402C62.244 52.1895 61.761 52.956 61.2435 53.7C60.726 54.444 60.177 55.164 59.595 55.86C59.013 56.5545 58.401 57.2235 57.7605 57.864C57.12 58.5045 56.451 59.1165 55.7565 59.6985C55.0605 60.2805 54.3405 60.8295 53.5965 61.347C52.8525 61.8645 52.086 62.3475 51.2985 62.7975C50.511 63.2475 49.7055 63.66 48.882 64.038C48.057 64.416 47.2185 64.7565 46.3635 65.0595C45.5085 65.3625 44.643 65.628 43.7655 65.853C42.8865 66.0795 42 66.267 41.106 66.414C40.212 66.561 39.312 66.6675 38.4075 66.735Z" fill="#EDECEC"/>
</g>
<path d="M38.4075 35.1945V17.343C38.4075 17.1885 38.3925 17.0355 38.3625 16.884C38.3325 16.7325 38.2875 16.5855 38.229 16.443C38.1705 16.3005 38.097 16.1655 38.0115 16.0365C37.926 15.909 37.8285 15.789 37.719 15.681C37.6095 15.5715 37.491 15.474 37.362 15.3885C37.2345 15.3015 37.098 15.2295 36.9555 15.171C36.813 15.111 36.666 15.066 36.5145 15.036C36.363 15.006 36.21 14.991 36.0555 14.991C35.901 14.991 35.748 15.006 35.5965 15.036C35.445 15.066 35.298 15.111 35.1555 15.171C35.013 15.2295 34.878 15.3015 34.749 15.3885C34.6215 15.474 34.5015 15.5715 34.3935 15.681C34.284 15.789 34.1865 15.909 34.101 16.0365C34.014 16.1655 33.942 16.3005 33.8835 16.443C33.8235 16.5855 33.7785 16.7325 33.7485 16.884C33.7185 17.0355 33.7035 17.1885 33.7035 17.343V36.159C33.702 36.4725 33.7605 36.7725 33.879 37.062C33.996 37.3515 34.1655 37.608 34.386 37.83L46.146 49.59C46.2555 49.6995 46.374 49.7985 46.503 49.884C46.632 49.971 46.7685 50.0445 46.911 50.1045C47.055 50.1645 47.202 50.2095 47.355 50.2395C47.5065 50.2695 47.661 50.2845 47.8155 50.2845C47.9715 50.2845 48.1245 50.2695 48.2775 50.2395C48.429 50.2095 48.5775 50.1645 48.72 50.1045C48.864 50.0445 49.0005 49.971 49.128 49.884C49.257 49.7985 49.377 49.6995 49.4865 49.59C49.596 49.4805 49.695 49.3605 49.7805 49.2315C49.8675 49.104 49.941 48.9675 50.001 48.8235C50.061 48.681 50.106 48.5325 50.136 48.381C50.166 48.228 50.181 48.075 50.181 47.919C50.181 47.7645 50.166 47.61 50.136 47.4585C50.106 47.3055 50.061 47.1585 50.001 47.0145C49.941 46.872 49.8675 46.7355 49.7805 46.6065C49.695 46.4775 49.596 46.359 49.4865 46.2495L38.4075 35.1945Z" fill="#EDECEC"/>
</g>
<defs>
<clipPath id="clip0_35_586">
<rect width="72" height="72" fill="white" transform="translate(0 0.103455)"/>
</clipPath>
</defs>
</svg>
