<svg width="50" height="77" viewBox="0 0 50 77" fill="none" xmlns="http://www.w3.org/2000/svg">
<mask id="mask0_5_17" style="mask-type:luminance" maskUnits="userSpaceOnUse" x="0" y="0" width="50" height="77">
<path d="M0.0193024 0.0738068H49.9807V76.0296H0.0193024V0.0738068Z" fill="white"/>
</mask>
<g mask="url(#mask0_5_17)">
<path d="M23.5247 50.1358V9.05899C23.5247 4.10736 19.4945 0.0820923 14.5363 0.0820923C9.57973 0.0820923 5.54952 4.10736 5.54952 9.05899V50.1358C2.06821 52.8539 0.0193176 57.0308 0.0193176 61.5209C0.0193176 69.5154 6.53359 76.0198 14.5363 76.0198C22.5407 76.0198 29.055 69.5154 29.055 61.5209C29.055 57.0308 27.0061 52.8539 23.5247 50.1358ZM14.5363 71.8791C8.81984 71.8791 4.1715 67.2308 4.1715 61.5259C4.1715 58.0429 5.88908 54.8286 8.76874 52.9248C9.35226 52.5407 9.70171 51.8929 9.70171 51.199V9.05899C9.70171 6.39526 11.8709 4.22439 14.5413 4.22439C17.2132 4.22439 19.3825 6.39032 19.3825 9.05899V51.199C19.3825 51.8929 19.7319 52.5407 20.3154 52.9248C23.1951 54.8286 24.9127 58.038 24.9127 61.5259C24.9077 67.2308 20.2544 71.8791 14.5363 71.8791ZM20.7572 61.5209C20.7572 64.9429 17.9632 67.7319 14.5363 67.7319C11.1061 67.7319 8.3171 64.9429 8.3171 61.5209C8.3171 58.8275 10.0561 56.5495 12.4643 55.6891V10.4354C12.4643 9.29141 13.3907 8.36504 14.5363 8.36504C15.6819 8.36504 16.6099 9.29141 16.6099 10.4354V55.6891C19.0182 56.5495 20.7572 58.8275 20.7572 61.5209ZM49.2538 17.9287C50.0186 18.7793 49.9527 20.0848 49.1022 20.8496C47.495 22.3018 45.4115 23.0963 43.2423 23.0963C38.411 23.0963 34.483 19.1732 34.483 14.3485C34.483 9.52382 38.411 5.60076 43.2423 5.60076C45.4115 5.60076 47.4901 6.40021 49.1022 7.8491C49.9527 8.61394 50.0236 9.92437 49.2538 10.7749C48.4824 11.6255 47.1752 11.6963 46.323 10.9266C45.4774 10.1617 44.378 9.74141 43.2373 9.74141C40.6923 9.74141 38.6236 11.8068 38.6236 14.3485C38.6236 16.8903 40.6923 18.9557 43.2373 18.9557C44.3829 18.9557 45.4774 18.5353 46.323 17.7754C47.1703 17.0123 48.489 17.0733 49.2538 17.9287ZM31.1269 1.12055C29.0335 1.12055 27.3258 2.82659 27.3258 4.91834C27.3258 7.00845 29.0335 8.71449 31.1269 8.71449C33.2203 8.71449 34.9297 7.00845 34.9297 4.91834C34.9297 2.82659 33.2203 1.12055 31.1269 1.12055ZM31.1269 6.63922C30.1742 6.63922 29.3995 5.86449 29.3995 4.91175C29.3995 3.96065 30.1742 3.18593 31.1269 3.18593C32.0797 3.18593 32.856 3.96065 32.856 4.91175C32.856 5.86449 32.0797 6.63922 31.1269 6.63922Z" fill="#EDECEC"/>
</g>
</svg>
