<svg width="82" height="81" viewBox="0 0 82 81" fill="none" xmlns="http://www.w3.org/2000/svg">
<mask id="mask0_34_456" style="mask-type:luminance" maskUnits="userSpaceOnUse" x="2" y="1" width="78" height="79">
<path d="M2.11694 1.7204H79.8864V79.4899H2.11694V1.7204Z" fill="white"/>
</mask>
<g mask="url(#mask0_34_456)">
<path d="M41.0017 1.7204C19.571 1.7204 2.11694 19.1745 2.11694 40.6051C2.11694 62.0358 19.571 79.4899 41.0017 79.4899C60.9735 79.4899 77.4864 64.3501 79.636 44.9195C79.6646 44.6657 79.668 44.4119 79.6444 44.1565C79.6226 43.9027 79.5755 43.6523 79.5049 43.4086C79.4343 43.1632 79.3385 42.9262 79.2209 42.701C79.1032 42.4741 78.9654 42.2606 78.8058 42.0623C78.6444 41.8623 78.4679 41.6808 78.2713 41.5161C78.0763 41.3514 77.8662 41.2085 77.6427 41.0858C77.4192 40.9631 77.1856 40.8623 76.9419 40.7867C76.6982 40.7094 76.4494 40.6573 76.1956 40.6287C75.9418 40.6001 75.688 40.5984 75.4343 40.6203C75.1788 40.6421 74.9301 40.6892 74.6847 40.7598C74.4393 40.832 74.204 40.9262 73.9771 41.0438C73.7502 41.1615 73.5367 41.301 73.3384 41.4606C73.1384 41.6203 72.9569 41.7968 72.7922 41.9934C72.6292 42.1884 72.4846 42.3985 72.3619 42.622C72.2392 42.8455 72.1384 43.0791 72.0628 43.3228C71.9855 43.5665 71.9334 43.8153 71.9048 44.0691C70.1837 59.6257 57.0541 71.7133 41.0017 71.7133C23.7745 71.7133 9.89524 57.834 9.89524 40.6051C9.89524 23.3779 23.7745 9.49869 41.0017 9.49869C49.9044 9.49869 57.8608 13.2601 63.513 19.235L57.1264 25.6217C56.3684 26.3797 56.3684 27.6133 57.1264 28.3713C57.5028 28.7511 58.002 28.9411 58.5012 28.9411H75.999C76.2544 28.9411 76.5066 28.9159 76.757 28.8654C77.0074 28.815 77.2511 28.7427 77.4864 28.6436C77.7217 28.5461 77.9469 28.4268 78.1587 28.2856C78.3705 28.1427 78.5671 27.9814 78.7486 27.8016C78.9284 27.6217 79.0898 27.4251 79.231 27.2116C79.3738 26.9999 79.4932 26.7763 79.5906 26.5393C79.6881 26.304 79.7621 26.0603 79.8125 25.8099C79.8629 25.5595 79.8864 25.3074 79.8864 25.0519V7.55412C79.8864 7.05663 79.6948 6.56082 79.3167 6.1793C78.5587 5.42131 77.3267 5.42131 76.5687 6.1793L68.9955 13.7509C61.9231 6.36754 52.012 1.7204 41.0017 1.7204ZM40.9412 17.2215C40.6874 17.2266 40.4336 17.2551 40.1849 17.3089C39.9361 17.361 39.6941 17.4383 39.4605 17.5409C39.2252 17.6417 39.0033 17.7644 38.7932 17.9089C38.5832 18.0535 38.3899 18.2182 38.2117 18.4014C38.0353 18.5846 37.8773 18.7829 37.7378 18.9963C37.6 19.2098 37.4823 19.4367 37.3882 19.6737C37.2941 19.9106 37.2235 20.1544 37.1781 20.4048C37.131 20.6552 37.1109 20.909 37.1142 21.1628V44.4943C37.1109 44.7514 37.1327 45.0069 37.1798 45.2607C37.2268 45.5145 37.2974 45.7599 37.3932 45.9985C37.4907 46.2389 37.6084 46.4658 37.7495 46.6809C37.8907 46.896 38.0521 47.096 38.2336 47.2792C38.4134 47.4624 38.6117 47.6271 38.8252 47.7717C39.0386 47.9162 39.2638 48.0372 39.5008 48.1364C39.7395 48.2355 39.9849 48.3112 40.237 48.3616C40.4891 48.412 40.7445 48.4372 41.0017 48.4372C41.2605 48.4372 41.5143 48.412 41.7681 48.3616C42.0202 48.3112 42.2656 48.2355 42.5026 48.1364C42.7412 48.0372 42.9664 47.9162 43.1799 47.7717C43.3933 47.6271 43.59 47.4624 43.7715 47.2792C43.953 47.096 44.1127 46.896 44.2555 46.6809C44.3967 46.4658 44.5144 46.2389 44.6102 45.9985C44.706 45.7599 44.7782 45.5145 44.8253 45.2607C44.8724 45.0069 44.8942 44.7514 44.8908 44.4943V21.1628C44.8942 20.9039 44.8724 20.6451 44.8236 20.3896C44.7749 20.1342 44.7026 19.8854 44.6051 19.6451C44.506 19.4031 44.3849 19.1745 44.2421 18.9577C44.0975 18.7409 43.9328 18.5409 43.7496 18.3577C43.5648 18.1745 43.3648 18.0098 43.148 17.8669C42.9311 17.7224 42.7026 17.603 42.4605 17.5056C42.2202 17.4081 41.9715 17.3341 41.716 17.2871C41.4588 17.24 41.2017 17.2182 40.9412 17.2215ZM41.0017 56.1601C40.7445 56.1567 40.4891 56.1785 40.2353 56.2256C39.9832 56.2727 39.7361 56.3433 39.4975 56.4391C39.2588 56.5365 39.0302 56.6542 38.8151 56.7954C38.6 56.9365 38.4 57.0979 38.2168 57.2794C38.0336 57.4592 37.8689 57.6576 37.726 57.871C37.5815 58.0845 37.4588 58.3097 37.3596 58.5467C37.2604 58.7853 37.1848 59.0307 37.1344 59.2828C37.084 59.5349 37.0588 59.7904 37.0588 60.0475C37.0588 60.3064 37.084 60.5601 37.1344 60.8139C37.1848 61.066 37.2604 61.3114 37.3596 61.5484C37.4588 61.7871 37.5815 62.0123 37.726 62.2257C37.8689 62.4392 38.0336 62.6358 38.2168 62.8173C38.4 62.9988 38.6 63.1602 38.8151 63.3014C39.0302 63.4425 39.2588 63.5602 39.4975 63.656C39.7361 63.7535 39.9832 63.8241 40.2353 63.8711C40.4891 63.9182 40.7445 63.94 41.0017 63.9367C41.2605 63.94 41.516 63.9182 41.7681 63.8711C42.0219 63.8241 42.2689 63.7535 42.5076 63.656C42.7463 63.5602 42.9732 63.4425 43.19 63.3014C43.4051 63.1602 43.6034 62.9988 43.7883 62.8173C43.9715 62.6358 44.1345 62.4392 44.2791 62.2257C44.4236 62.0123 44.5463 61.7871 44.6455 61.5484C44.7446 61.3114 44.8203 61.066 44.8707 60.8139C44.9211 60.5601 44.9463 60.3064 44.9463 60.0475C44.9463 59.7904 44.9211 59.5349 44.8707 59.2828C44.8203 59.0307 44.7446 58.7853 44.6455 58.5467C44.5463 58.3097 44.4236 58.0845 44.2791 57.871C44.1345 57.6576 43.9715 57.4592 43.7883 57.2794C43.6034 57.0979 43.4051 56.9365 43.19 56.7954C42.9732 56.6542 42.7463 56.5365 42.5076 56.4391C42.2689 56.3433 42.0219 56.2727 41.7681 56.2256C41.516 56.1785 41.2605 56.1567 41.0017 56.1601Z" fill="#F03029"/>
</g>
</svg>
