<svg width="74" height="74" viewBox="0 0 74 74" fill="none" xmlns="http://www.w3.org/2000/svg">
<rect width="72.4199" height="72.4199" transform="translate(0.790039 0.893494)" fill="#005DCA"/>
<mask id="mask0_5_66" style="mask-type:luminance" maskUnits="userSpaceOnUse" x="1" y="12" width="73" height="22">
<path d="M1.17627 12.5712H73.0168V33.7239H1.17627V12.5712Z" fill="white"/>
</mask>
<g mask="url(#mask0_5_66)">
<path d="M71.6376 26.8953C66.959 22.2273 61.5049 18.6123 55.4261 16.1515C49.5571 13.7738 43.3577 12.5683 36.9968 12.5683C30.6374 12.5683 24.438 13.7738 18.5674 16.1515C12.4902 18.6123 7.03605 22.2273 2.35893 26.8953C0.792852 28.4569 0.792852 30.9886 2.35893 32.5501C3.9235 34.1117 6.46122 34.1117 8.02579 32.5501C24.0004 16.6102 49.9946 16.6102 65.9693 32.5501C66.7523 33.3302 67.7767 33.7209 68.8027 33.7209C69.8286 33.7209 70.8546 33.3302 71.6361 32.5501C73.2022 30.9886 73.2022 28.4569 71.6361 26.8953H71.6376Z" fill="#EDECEC"/>
</g>
<path d="M36.9925 26.7278C27.1796 26.7278 17.949 30.5449 11.0013 37.4761C9.43669 39.0392 9.43669 41.5693 11.0013 43.1309C12.5673 44.6924 15.1036 44.6924 16.6696 43.1309C27.8751 31.9496 46.1098 31.9496 57.3153 43.1309C58.0984 43.9124 59.1243 44.3032 60.1487 44.3032C61.1747 44.3032 62.2006 43.9124 62.9837 43.1309C64.5482 41.5693 64.5482 39.0392 62.9837 37.4761C56.0359 30.5449 46.8054 26.7278 36.9925 26.7278Z" fill="#EDECEC"/>
<path d="M36.9925 41.1877C30.9952 41.1877 25.354 43.5202 21.1084 47.7567C19.5438 49.3183 19.5438 51.85 21.1084 53.4115C22.6729 54.9731 25.2107 54.9731 26.7752 53.4115C32.4089 47.7914 41.576 47.7914 47.2097 53.4115C47.9927 54.1931 49.0187 54.5823 50.0431 54.5823C51.0691 54.5823 52.095 54.1931 52.8781 53.4115C54.4426 51.85 54.4426 49.3183 52.8781 47.7567C48.6325 43.5202 42.9912 41.1877 36.9925 41.1877Z" fill="#EDECEC"/>
<mask id="mask1_5_66" style="mask-type:luminance" maskUnits="userSpaceOnUse" x="33" y="54" width="8" height="8">
<path d="M33.6204 54.5808H40.5727V61.5271H33.6204V54.5808Z" fill="white"/>
</mask>
<g mask="url(#mask1_5_66)">
<path d="M40.3042 58.2093C40.3042 58.4266 40.283 58.6423 40.2408 58.8566C40.1985 59.0708 40.1352 59.2775 40.0522 59.4797C39.9677 59.6804 39.8651 59.872 39.7444 60.053C39.6222 60.2356 39.4849 60.4031 39.3295 60.5569C39.1756 60.7108 39.0081 60.8481 38.8256 60.9703C38.6445 61.091 38.4529 61.1936 38.2507 61.2766C38.0486 61.3596 37.8404 61.423 37.6261 61.4652C37.4119 61.509 37.1946 61.5301 36.9774 61.5301C36.7586 61.5301 36.5413 61.509 36.3271 61.4652C36.1128 61.423 35.9046 61.3596 35.7025 61.2766C35.5018 61.1936 35.3102 61.091 35.1276 60.9703C34.9466 60.8481 34.7776 60.7108 34.6237 60.5569C34.4683 60.4031 34.331 60.2356 34.2088 60.053C34.0881 59.872 33.9855 59.6804 33.9025 59.4797C33.818 59.2775 33.7547 59.0708 33.7124 58.8566C33.6702 58.6423 33.6491 58.4266 33.6491 58.2093C33.6491 57.9906 33.6702 57.7748 33.7124 57.5606C33.7547 57.3478 33.818 57.1396 33.9025 56.9375C33.9855 56.7368 34.0881 56.5452 34.2088 56.3641C34.331 56.1831 34.4683 56.0156 34.6237 55.8602C34.7776 55.7063 34.9466 55.569 35.1276 55.4483C35.3102 55.3261 35.5018 55.225 35.7025 55.1405C35.9046 55.0576 36.1128 54.9942 36.3271 54.9519C36.5413 54.9097 36.7586 54.8886 36.9774 54.8886C37.1946 54.8886 37.4119 54.9097 37.6261 54.9519C37.8404 54.9942 38.0486 55.0576 38.2507 55.1405C38.4529 55.225 38.6445 55.3261 38.8256 55.4483C39.0081 55.569 39.1756 55.7063 39.3295 55.8602C39.4849 56.0156 39.6222 56.1831 39.7444 56.3641C39.8651 56.5452 39.9677 56.7368 40.0522 56.9375C40.1352 57.1396 40.1985 57.3478 40.2408 57.5606C40.283 57.7748 40.3042 57.9906 40.3042 58.2093Z" fill="#EDECEC"/>
</g>
</svg>
